<svg xmlns="http://www.w3.org/2000/svg" width="110.253" height="103.766" viewBox="0 0 110.253 103.766"><defs><style>.a{fill:#4aab4f;}</style></defs><path class="a" d="M106.968,58.369H58.876L90.9,90.4a3.252,3.252,0,0,0,4.5.138,48.539,48.539,0,0,0,14.821-28.548,3.249,3.249,0,0,0-3.255-3.618ZM103.76,45.236A48.756,48.756,0,0,0,58.532.008a3.261,3.261,0,0,0-3.4,3.283V48.64h45.352a3.26,3.26,0,0,0,3.281-3.4ZM45.4,58.369V10.277a3.248,3.248,0,0,0-3.616-3.255A48.605,48.605,0,0,0,.029,56.822c.884,25.97,23.244,47.267,49.227,46.941a48.263,48.263,0,0,0,27.413-8.924,3.22,3.22,0,0,0,.318-4.88Z" transform="translate(0 0)"/></svg>