<?xml version="1.0" encoding="UTF-8" standalone="no"?>
<svg
   xmlns:dc="http://purl.org/dc/elements/1.1/"
   xmlns:cc="http://creativecommons.org/ns#"
   xmlns:rdf="http://www.w3.org/1999/02/22-rdf-syntax-ns#"
   xmlns:svg="http://www.w3.org/2000/svg"
   xmlns="http://www.w3.org/2000/svg"
   xmlns:sodipodi="http://sodipodi.sourceforge.net/DTD/sodipodi-0.dtd"
   xmlns:inkscape="http://www.inkscape.org/namespaces/inkscape"
   inkscape:version="1.0 (6e3e5246a0, 2020-05-07)"
   sodipodi:docname="Icon material-location-on.svg"
   id="svg20"
   version="1.1"
   viewBox="0 0 40.425 57.75"
   height="57.75"
   width="40.425">
  <metadata
     id="metadata24">
    <rdf:RDF>
      <cc:Work
         rdf:about="">
        <dc:format>image/svg+xml</dc:format>
        <dc:type
           rdf:resource="http://purl.org/dc/dcmitype/StillImage" />
      </cc:Work>
    </rdf:RDF>
  </metadata>
  <sodipodi:namedview
     inkscape:current-layer="svg20"
     inkscape:window-maximized="0"
     inkscape:window-y="261"
     inkscape:window-x="1017"
     inkscape:cy="15.739173"
     inkscape:cx="16.017208"
     inkscape:zoom="12.342227"
     showgrid="false"
     id="namedview22"
     inkscape:window-height="1705"
     inkscape:window-width="1960"
     inkscape:pageshadow="2"
     inkscape:pageopacity="0"
     guidetolerance="10"
     gridtolerance="10"
     objecttolerance="10"
     borderopacity="1"
     bordercolor="#666666"
     pagecolor="#ffffff" />
  <defs
     id="defs16">
    <style
       id="style14">.a{fill:#4aab4f;}</style>
  </defs>
  <path
     style="stroke-width:0.309832"
     id="path18"
     d="M 20.212343,0.21687717 A 6.3339707,6.1841389 0 0 0 13.87461,6.4046902 c 0,4.6411658 6.337733,11.4920898 6.337733,11.4920898 0,0 6.338047,-6.850924 6.338047,-11.4920898 A 6.3339707,6.1841389 0 0 0 20.212343,0.21687717 Z m 0,8.39787703 a 2.2636106,2.2100643 0 1 1 2.263611,-2.210064 2.2642378,2.2106766 0 0 1 -2.263611,2.210064 z"
     class="a" />
  <path
     style="fill:#4aab4f;stroke-width:0.327457"
     class="a"
     d="M 25.54079,39.764169 V 29.046818 l -5.358838,-5.35851 -5.358512,5.35851 v 3.572559 H 4.1060903 V 57.626309 H 36.258139 V 39.764169 Z M 11.250881,54.054078 H 7.6786493 v -3.57256 h 3.5725597 z m 0,-7.144791 H 7.6786493 v -3.573542 h 3.5725597 z m 0,-7.144792 H 7.6786493 v -3.572559 h 3.5725597 z m 10.71735,14.289583 h -3.57256 v -3.57256 h 3.57256 z m 0,-7.144791 h -3.57256 v -3.573542 h 3.57256 z m 0,-7.144792 h -3.57256 v -3.572559 h 3.57256 z m 0,-7.14479 h -3.57256 v -3.572887 h 3.57256 z M 32.68558,54.054078 h -3.572559 v -3.57256 h 3.572559 z m 0,-7.144791 h -3.572559 v -3.573542 h 3.572559 z"
     id="path6" />
</svg>
