<svg xmlns="http://www.w3.org/2000/svg" width="106.497" height="85.197" viewBox="0 0 106.497 85.197"><defs><style>.a{fill:#4aab4f;}</style></defs><path class="a" d="M37.274,42.6a21.3,21.3,0,1,0-21.3-21.3A21.3,21.3,0,0,0,37.274,42.6Zm14.91,5.325H49.4a28.966,28.966,0,0,1-24.261,0H22.364A22.37,22.37,0,0,0,0,70.288V77.21A7.989,7.989,0,0,0,7.987,85.2H66.56a7.989,7.989,0,0,0,7.987-7.987V70.288A22.37,22.37,0,0,0,52.183,47.924Zm53.748-21.366-4.626-4.676a1.973,1.973,0,0,0-2.8-.017L81.071,39.171,73.5,31.55a1.973,1.973,0,0,0-2.8-.017l-4.676,4.643a1.973,1.973,0,0,0-.017,2.8L79.606,52.666a1.973,1.973,0,0,0,2.8.017l23.512-23.329a1.989,1.989,0,0,0,.017-2.8Z"/></svg>